<svg width="256" height="224" viewBox="0 0 256 224" fill="none" xmlns="http://www.w3.org/2000/svg">
<rect width="256" height="224" fill="black"/>
<path d="M105.64 169L84.04 137.8H82.76H60.2V169H34.28V57H82.76C92.68 57 101.267 58.6533 108.52 61.96C115.88 65.2667 121.533 69.96 125.48 76.04C129.427 82.12 131.4 89.32 131.4 97.64C131.4 105.96 129.373 113.16 125.32 119.24C121.373 125.213 115.72 129.8 108.36 133L133.48 169H105.64ZM105.16 97.64C105.16 91.3467 103.133 86.5467 99.08 83.24C95.0267 79.8267 89.1067 78.12 81.32 78.12H60.2V117.16H81.32C89.1067 117.16 95.0267 115.453 99.08 112.04C103.133 108.627 105.16 103.827 105.16 97.64Z" fill="white"/>
<path d="M223.84 126.28C223.84 126.6 223.68 128.84 223.36 133H158.24C159.413 138.333 162.187 142.547 166.56 145.64C170.933 148.733 176.373 150.28 182.88 150.28C187.36 150.28 191.307 149.64 194.72 148.36C198.24 146.973 201.493 144.84 204.48 141.96L217.76 156.36C209.653 165.64 197.813 170.28 182.24 170.28C172.533 170.28 163.947 168.413 156.48 164.68C149.013 160.84 143.253 155.56 139.2 148.84C135.147 142.12 133.12 134.493 133.12 125.96C133.12 117.533 135.093 109.96 139.04 103.24C143.093 96.4133 148.587 91.1333 155.52 87.4C162.56 83.56 170.4 81.64 179.04 81.64C187.467 81.64 195.093 83.4533 201.92 87.08C208.747 90.7067 214.08 95.9333 217.92 102.76C221.867 109.48 223.84 117.32 223.84 126.28ZM179.2 100.52C173.547 100.52 168.8 102.12 164.96 105.32C161.12 108.52 158.773 112.893 157.92 118.44H200.32C199.467 113 197.12 108.68 193.28 105.48C189.44 102.173 184.747 100.52 179.2 100.52Z" fill="white"/>
</svg>
